<svg aria-hidden="true" style="position:absolute;width:0;height:0;overflow:hidden" xmlns="http://www.w3.org/2000/svg"><defs><symbol id="icon-facebook" viewBox="0 0 32 32"><path d="M21.33 5.31h2.92V.23A36.55 36.55 0 0 0 20.12 0H20c-4.2 0-7.09 2.65-7.09 7.52V12H8.25v5.69h4.65V32h5.7V17.69h4.46l.7-5.69H18.6V8.08c0-1.64.45-2.77 2.74-2.77z"/></symbol><symbol id="icon-instagram" viewBox="0 0 32 32"><path d="M31.97 9.4c-.08-1.7-.35-2.86-.75-3.87a7.84 7.84 0 0 0-1.84-2.84A7.89 7.89 0 0 0 26.6.86l-.06-.02A11.7 11.7 0 0 0 22.66.1C20.95.02 20.4 0 16.06 0c-4.35 0-4.89.02-6.6.1-1.7.07-2.86.34-3.88.74a7.84 7.84 0 0 0-2.84 1.85A7.89 7.89 0 0 0 .92 5.47l-.02.05C.5 6.54.23 7.7.16 9.4c-.08 1.71-.1 2.26-.1 6.6 0 4.35.02 4.9.09 6.6.07 1.7.35 2.87.74 3.88a7.91 7.91 0 0 0 1.85 2.84 7.91 7.91 0 0 0 2.84 1.84c1.02.4 2.18.67 3.88.75 1.7.07 2.25.09 6.6.09 4.34 0 4.88-.02 6.59-.1a11.4 11.4 0 0 0 3.88-.74 8.24 8.24 0 0 0 4.66-4.62l.02-.06c.4-1.02.67-2.18.75-3.88.07-1.7.09-2.25.09-6.6 0-4.34 0-4.89-.08-6.6zm-2.88 13.07a8.75 8.75 0 0 1-.55 2.97 5.34 5.34 0 0 1-3 3.03l-.04.01c-.56.22-1.41.48-2.97.55-1.69.08-2.2.1-6.46.1s-4.79-.03-6.47-.1a8.71 8.71 0 0 1-2.97-.55 4.95 4.95 0 0 1-1.83-1.2 4.99 4.99 0 0 1-1.19-1.8l-.01-.03a8.8 8.8 0 0 1-.55-2.97c-.07-1.69-.1-2.2-.1-6.46 0-4.27.03-4.79.1-6.47.07-1.56.33-2.4.55-2.97a4.89 4.89 0 0 1 1.2-1.84 4.99 4.99 0 0 1 1.84-1.19A8.78 8.78 0 0 1 9.61 3c1.69-.07 2.2-.1 6.46-.1 4.28 0 4.78.03 6.47.1a8.7 8.7 0 0 1 2.96.55 4.95 4.95 0 0 1 1.84 1.2 4.98 4.98 0 0 1 1.2 1.83c.22.56.48 1.42.55 2.97.07 1.69.09 2.2.09 6.47s-.02 4.77-.1 6.45z"/><path d="M16.06 7.78a8.22 8.22 0 0 0-.01 16.44 8.22 8.22 0 0 0 .02-16.44h-.01zm0 13.56a5.33 5.33 0 1 1 0-10.67 5.33 5.33 0 1 1 0 10.67zM26.52 7.46a1.92 1.92 0 0 1-3.84 0 1.92 1.92 0 0 1 3.84 0z"/></symbol><symbol id="icon-linkedin" viewBox="0 0 32 32"><path d="M32 32V20.26c0-5.74-1.24-10.16-7.95-10.16-3.22 0-5.39 1.77-6.27 3.45h-.1v-2.92h-6.36V32h6.63V21.42c0-2.79.53-5.48 3.97-5.48 3.4 0 3.45 3.18 3.45 5.66V32H32zM.52 10.64h6.63V32H.53V10.64zM3.84 0C1.72 0 0 1.72 0 3.84s1.72 3.88 3.84 3.88S7.7 5.96 7.7 3.84 5.96 0 3.84 0z"/></symbol><symbol id="icon-twitter" viewBox="0 0 32 32"><path d="M32 6.08c-1.1.5-2.38.86-3.71 1.03h-.07a6.56 6.56 0 0 0 2.87-3.58l.02-.04a12.86 12.86 0 0 1-4.08 1.57l-.08.02A6.56 6.56 0 0 0 15.6 9.56c0 .52.04 1.02.15 1.5a18.55 18.55 0 0 1-13.5-6.83l-.02-.04a6.5 6.5 0 0 0-.9 3.31 6.56 6.56 0 0 0 2.9 5.45l.01.01a6.46 6.46 0 0 1-3-.82l.04.02v.07a6.6 6.6 0 0 0 5.21 6.44h.05a6.4 6.4 0 0 1-1.67.22H4.8a5.84 5.84 0 0 1-1.27-.12h.03a6.64 6.64 0 0 0 6.13 4.58 13.1 13.1 0 0 1-8.12 2.8h-.01c-.54 0-1.05-.03-1.57-.1A18.3 18.3 0 0 0 10 29h.07c12.07 0 18.67-10 18.67-18.67 0-.29-.01-.57-.03-.85a13.19 13.19 0 0 0 3.26-3.36l.03-.04z"/></symbol><symbol id="icon-antenna" viewBox="0 0 32 32"><path fill="#2E2F42" d="m30.77 22.1-8.44-8.5.94-4.62c.24.1.5.14.76.14h.03a2.16 2.16 0 1 0-2.03-1.42l-4.97.6L8.97.16A.53.53 0 0 0 8.6 0a.54.54 0 0 0-.38.15l-1.5 1.5a.53.53 0 0 0 0 .76l.8.83a14.9 14.9 0 0 0 2.52 17.66.5.5 0 0 0 .15.1 2.99 2.99 0 0 0-.05.55v6.18h-6.4a2.67 2.67 0 0 0-2.67 2.67v1.07c0 .3.24.53.53.53h24.54a.54.54 0 0 0 .53-.53V30.4a2.67 2.67 0 0 0-2.66-2.67h-6.4V25a14.78 14.78 0 0 0 10.16-1.5l-.07.04.81.82a.53.53 0 0 0 .38.16.53.53 0 0 0 .37-.15l1.52-1.5a.54.54 0 0 0 0-.76zM23.28 6.23a1.07 1.07 0 1 1 .75 1.83 1.07 1.07 0 0 1-.75-1.83zm-1.26 3.5-.6 2.95-1.17-1.18 1.77-1.76zm-.6-.9-1.92 1.92-1.5-1.5 3.4-.41zM24 28.8a1.6 1.6 0 0 1 1.6 1.6v.53H2.14v-.53a1.6 1.6 0 0 1 1.6-1.6H24zm-7.46-2.13v1.06H11.2v-1.06h5.34zM11.2 25.6v-4.05c0-1.3 1.2-2.35 2.67-2.35s2.67 1.05 2.67 2.35v4.05H11.2zm6.4-1.7v-2.35c0-1.89-1.67-3.42-3.73-3.42h-.06a3.8 3.8 0 0 0-3.21 1.78l-.01.01a13.82 13.82 0 0 1-3.81-9.55c0-2.31.57-4.5 1.57-6.41l-.04.08 18.6 18.7a13.64 13.64 0 0 1-9.4 1.15l.1.02zm11.3-.68L7.83 2.04l.75-.75 7.94 7.98 13.12 13.2-.76.75z"/><path fill="#4D5AE5" d="M13.88 20.27h-.01a1.6 1.6 0 0 0 0 3.2 1.6 1.6 0 0 0 0-3.2zm.37 1.97a.53.53 0 0 1-.91-.37.53.53 0 0 1 .53-.54.54.54 0 0 1 .37.92z"/></symbol><symbol id="icon-diagram" viewBox="0 0 32 32"><path fill="#4D5AE5" d="M14.93 14.96h1.06v4.8h-1.06v-4.8zm4.26 2.14h1.07v2.66h-1.07V17.1zm-8.53 1.6h1.07v1.06h-1.07V18.7zm-3.2-.54h1.07v1.6H7.46v-1.6z"/><path fill="#2E2F42" d="M1.6 28.3h25.59a1.6 1.6 0 0 0 1.6-1.6v-2.14a1.6 1.6 0 0 0-1.6-1.6h-.54V9.66l3.03-2.86a1.6 1.6 0 1 0-.74-.75v-.01l-2.3 2.16V6.97a1.6 1.6 0 0 0-1.6-1.6H3.73a1.6 1.6 0 0 0-1.6 1.6v16H1.6A1.6 1.6 0 0 0 0 24.55v2.13a1.6 1.6 0 0 0 1.6 1.6zM30.38 4.83a.53.53 0 0 1 0 1.06.53.53 0 0 1 0-1.06zM3.2 6.97c0-.3.24-.53.53-.53h21.32c.3 0 .54.23.54.53V9.2l-1.07 1.01V8.03A.53.53 0 0 0 24 7.5H4.79a.53.53 0 0 0-.52.53v13.33c0 .3.23.54.53.54h19.19a.53.53 0 0 0 .53-.54V11.7l1.07-1.01v12.28H3.19v-16zM8 13.9a1.6 1.6 0 1 0 1.1 2.75l1.86.93a.53.53 0 0 0 .63-.13l3.94-4.43 3.87 2.9a.53.53 0 0 0 .69-.03l3.36-3.2v8.14H5.33V8.57h18.12v2.66l-3.77 3.57-3.9-2.93a.53.53 0 0 0-.72.07l-4 4.5-1.49-.75.02-.2A1.6 1.6 0 0 0 8 13.9zm.53 1.6a.53.53 0 0 1-1.07 0 .53.53 0 0 1 1.07 0zm3.2 8.53h5.33v.53a.53.53 0 0 1-.53.53h-4.27a.53.53 0 0 1-.53-.53v-.53zm-10.66.53c0-.3.23-.53.53-.53h9.06v.53a1.6 1.6 0 0 0 1.6 1.6h4.26a1.6 1.6 0 0 0 1.6-1.6v-.53h9.06c.3 0 .54.23.54.53v2.13a.53.53 0 0 1-.54.54H1.6a.53.53 0 0 1-.53-.54v-2.13z"/></symbol><symbol id="icon-clock" viewBox="0 0 32 32"><path fill="#2E2F42" d="M31.3 15.3a15.3 15.3 0 1 0-20.07 14.55l.1.03a.67.67 0 0 0 .54-.06.64.64 0 0 0 .28-.36l3.87-12.25a1.91 1.91 0 1 0-.86-3.63h.02l-5.11-5.1a.64.64 0 1 0-.9.9l5.1 5.1a1.87 1.87 0 0 0 .53 2.3v.01l-3.68 11.67a14.04 14.04 0 1 1 10.66-.38l-.09.03-.4-1.87a.64.64 0 0 0-1.04-.34l-3.84 3.42a.64.64 0 0 0 .23 1.08l4.9 1.57a.64.64 0 0 0 .82-.74l-.39-1.84a15.29 15.29 0 0 0 9.33-14.05v-.04zM16 14.66a.64.64 0 0 1 0 1.28.64.64 0 0 1 0-1.28zm2.1 14.87 2.18-1.95.6 2.84-2.79-.9z"/><path fill="#4D5AE5" d="M15.35 3.19v1.27a.64.64 0 1 0 1.28 0V3.19a.64.64 0 0 0-1.28 0zM3.88 14.66a.64.64 0 1 0 0 1.28h1.27a.64.64 0 1 0 0-1.28H3.88zm24.23 1.28a.64.64 0 1 0 0-1.27h-1.28a.64.64 0 0 0 0 1.27h1.28z"/></symbol><symbol id="icon-astronaut" viewBox="0 0 32 32"><path fill="#4D5AE5" d="M31.97 4.52a.54.54 0 0 0-.42-.36l-1.92-.28-.85-1.73c-.18-.36-.78-.36-.96 0l-.85 1.73-1.91.28a.53.53 0 0 0-.3.91l1.38 1.35-.32 1.9a.53.53 0 0 0 .77.56l1.71-.9 1.71.9a.53.53 0 0 0 .77-.56l-.32-1.9 1.38-1.35a.54.54 0 0 0 .13-.55zm-2.46 1.33a.53.53 0 0 0-.15.47l.19 1.12-1-.53a.52.52 0 0 0-.5 0l-1 .53.2-1.12a.53.53 0 0 0-.16-.47l-.8-.79 1.11-.16a.53.53 0 0 0 .4-.3l.5-1 .5 1a.54.54 0 0 0 .4.3l1.12.16-.8.8zm-3.38 14.67h-1.06v1.07h1.06v-1.07zm0 2.13h-1.06v1.07h1.06v-1.07zm1.07-1.06h-1.07v1.07h1.07v-1.07zm-2.13 0H24v1.07h1.07v-1.07zm-2.67 4.8h-1.07v1.07h1.07v-1.07zm0 2.13h-1.07v1.07h1.07v-1.07zm1.07-1.06H22.4v1.06h1.07v-1.06zm-2.14 0h-1.06v1.06h1.06v-1.06zM16 24.26h-1.07v1.06H16v-1.06zm0 2.13h-1.07v1.07H16v-1.07zm1.07-1.07H16v1.07h1.07v-1.07zm-2.14 0h-1.06v1.07h1.06v-1.07zM5.87 6.12H4.8V7.2h1.07V6.12zm0 2.13H4.8v1.07h1.07V8.26zM6.93 7.2H5.87v1.07h1.06V7.19zm-2.13 0H3.73v1.07H4.8V7.19z"/><path fill="#2E2F42" d="M24.71 14.16a1.78 1.78 0 0 0-1.17-.7h-.01a1.76 1.76 0 0 0-1.35.35l-1.24.96-1.9 1.41-1.36-.54A6.94 6.94 0 0 0 14.83 2.4a6.96 6.96 0 0 0-6.96 6.93 6.86 6.86 0 0 0 1.12 3.76l-2.77-.02H6.2a.5.5 0 0 0-.16.03l-.04.02h-.02l-3.23 1.6-1.9.91a.43.43 0 0 0-.06.04 1.78 1.78 0 0 0-.59 2.3c.22.42.6.74 1.05.88a1.77 1.77 0 0 0 1.4-.13h-.02l1.39-.74 2.26-1.16 1.36-.01L2.2 22.2.86 23.55c-.3.3-.5.71-.5 1.17a1.67 1.67 0 0 0 1.68 1.67 1.67 1.67 0 0 0 1.18-.49l1.31-1.3 1.74-1.3.9.9-3.1 3.08c-.3.3-.49.71-.49 1.17a1.67 1.67 0 0 0 1.67 1.67c.43 0 .86-.16 1.18-.48l3.48-3.47 1.01-1 .02-.02 5.17-5.66 3.47.5a.52.52 0 0 0 .26-.04l.05-.02.06-.03 3.21-2.13.03-.03.04-.02 1.27-1.2a1.78 1.78 0 0 0 .21-2.36zM2.14 17.77a.71.71 0 0 1-.56.05.72.72 0 0 1-.21-1.26l1.31-.63.32.93.13.38-1 .53zm3.5-1.83-1.55.8-.26-.74-.18-.54 2.03-1-.04 1.48zm15.1-6.62a5.79 5.79 0 0 1-.6 2.56l-4.18-1.9a1.86 1.86 0 0 0-.79-1.38l1.46-4.87a5.88 5.88 0 0 1 4.1 5.6zm-11.8 0a5.89 5.89 0 0 1 6.65-5.81l-1.44 4.75h-.05a1.87 1.87 0 0 0-1.87 1.86A1.87 1.87 0 0 0 14.09 12c.7 0 1.3-.38 1.62-.95l3.86 1.76a5.9 5.9 0 0 1-4.74 2.39 5.89 5.89 0 0 1-5.9-5.87zm5.97.8a.8.8 0 0 1-.81.8.8.8 0 0 1-.8-.8c0-.44.35-.8.8-.8s.8.36.8.8zM2.46 25.15a.6.6 0 0 1-.85 0 .6.6 0 0 1 0-.85l.96-.96.85.85-.95.96zm3.22 3.73a.6.6 0 0 1-.86 0 .6.6 0 0 1 0-.84l.97-.96.85.85-.96.95zm3.48-3.47-1.77 1.76-.85-.85 1.77-1.75c.04-.04.06-.1.09-.14l.02-.04c.02-.04.02-.08.03-.13l.01-.07c0-.04 0-.07-.02-.1l-.01-.1a.51.51 0 0 0-.1-.14l-.02-.04-1.61-1.6-.06-.04a.5.5 0 0 0-.08-.05.48.48 0 0 0-.1-.04.5.5 0 0 0-.1-.02h-.02a.49.49 0 0 0-.08.01.59.59 0 0 0-.1.02.5.5 0 0 0-.1.05l-.05.02-1.78 1.33-.9-.9 2.4-2.39 4.36 4.3-.93.91zm6.82-7.02h-.07a.56.56 0 0 0-.1.01.45.45 0 0 0-.18.07.55.55 0 0 0-.08.06l-.04.03-4.7 5.15-4.32-4.26 2.83-2.82a.54.54 0 0 0-.38-.9H6.72l.03-1.6 3.1.02a6.93 6.93 0 0 0 4.98 2.1 7 7 0 0 0 1.28-.12c.04.04.08.07.13.09l2.41.96.33 1.64-3-.42zm4.04.18-.31-1.55 1.44-1.08.95 1.25-2.08 1.38zm3.75-2.83-.83.79-.94-1.24.84-.64a.73.73 0 0 1 .54-.14.72.72 0 0 1 .4 1.23z"/><path fill="#2E2F42" d="m13.6 18.54-2.14-2.13a.53.53 0 0 0-.75 0l-2.15 2.13a.53.53 0 0 0 0 .76l2.15 2.13a.53.53 0 0 0 .75 0l2.14-2.13a.53.53 0 0 0 0-.76zm-2.52 1.76L9.7 18.92l1.38-1.38 1.39 1.38-1.39 1.38zm6.08-15.23-.25 1.04c.07.01 1.73.45 1.73 2.15h1.07c0-2.02-1.66-2.97-2.54-3.19zm2.55 4.25h-1.07v1.07h1.07V9.32z"/></symbol><symbol id="icon-check" viewBox="0 0 40 32"><path d="M33.78 1.02A3.67 3.67 0 0 1 40 3.6a3.7 3.7 0 0 1-.97 2.6L19.45 30.82a3.67 3.67 0 0 1-5.3.1L1.17 17.86a3.7 3.7 0 0 1-.1-5.32 3.66 3.66 0 0 1 5.3.1l10.28 10.32L33.69 1.13l.1-.11z"/></symbol><symbol id="icon-close" viewBox="0 0 32 32"><path d="m21.33 11.74-1.07-1.07L16 14.93l-4.26-4.26-1.07 1.07L14.93 16l-4.26 4.26 1.07 1.07L16 17.07l4.26 4.26 1.07-1.07L17.07 16l4.26-4.26z"/></symbol><symbol id="icon-email" viewBox="0 0 24 32"><path d="M20 8H4a2 2 0 0 0-1.99 2L2 22c0 1.1.9 2 2 2h16a2 2 0 0 0 2-2V10a2 2 0 0 0-2-2zm-.4 4.25-7.07 4.42c-.32.2-.74.2-1.06 0L4.4 12.25a.85.85 0 1 1 .9-1.44L12 15l6.7-4.19a.85.85 0 1 1 .9 1.44z"/></symbol><symbol id="icon-person" viewBox="0 0 32 32"><path d="M16 16a5.33 5.33 0 1 0 0-10.66A5.33 5.33 0 0 0 16 16zm0 2.67c-3.56 0-10.67 1.78-10.67 5.33v1.33c0 .74.6 1.34 1.34 1.34h18.66c.74 0 1.34-.6 1.34-1.34V24c0-3.55-7.11-5.33-10.67-5.33z"/></symbol><symbol id="icon-phone" viewBox="0 0 24 32"><path d="m19.64 18.49-2.46-.28a1.92 1.92 0 0 0-1.58.55l-1.77 1.77a14.51 14.51 0 0 1-6.36-6.36l1.78-1.78c.42-.42.62-1 .55-1.58l-.28-2.44a1.93 1.93 0 0 0-1.92-1.7H5.93c-1.09 0-2 .9-1.93 2a16.4 16.4 0 0 0 15.34 15.32c1.09.07 2-.83 2-1.93V20.4c0-.98-.73-1.8-1.7-1.92z"/></symbol><symbol id="icon-telegram" viewBox="0 0 32 32"><path d="m32 2.67-32 15 10.23 3.15L26 8.5 14 21.99h.01H14v7.34l5.74-5.57L27 26l5-23.33z"/></symbol></defs></svg>